<svg class="diagram-root" style="background: #f5f6f6" xmlns="http://www.w3.org/2000/svg" xmlns:xlink="http://www.w3.org/1999/xlink"><style>.diagram-root { font-family: "Helvetica Neue", sans-serif; font-size: 12px; } .t { overflow: visible; } .t-bg { y: 40; fill: #fff;   } .th { fill: #005aa0;   } .tht { fill: #fff; font-size: 14px;  } .tf { fill: #323c46; overflow: visible; } .tf.pk { fill: #005aa0; font-weight: bold; } .tf.fk { font-weight: bold; } .ty { fill: #adb1b5; font-weight: normal; text-anchor: end; } .r { fill: transparent; stroke: #c3c3c3; stroke-width: 1; } .l { stroke: 1; } .i { fill: #c2c7ce; stroke: #c2c7ce; } .i.ix { fill: #afb3b6; stroke: #000; } .fa { fill: transparent; overflow: visible; } .fa .bg.hover { fill: #f7f7f7; } .c { cy: 12; r: 4; stroke: #d2d2dc; fill: #d2d2dc; } .hr { fill: transparent; stroke: #323c46; stroke-opacity: 0.035; stroke-width: 13; } .dc { stroke: #fa5a3c; fill: #fa5a3c; } .x { stroke: white; stroke-width: 1; } .hl .th { fill: #1b9bff; } .hl .tht {  } .fhl .bg { fill: #e7f4ff; } .fhls .bg {  } .r.hl { stroke: #1b9bff; } .dim { opacity: 0.25; }</style><g class="drawing-wrapper" transform="translate(-10.416153846153861, 86.92307692307689) scale(1,1)"><g class="rs"><path d="M 183.81 155.24 m -1, 0 a 1,1 0 1,0 2,0 a 1,1 0 1,0 -2,0 M 183.81 155.24 m -0.5, 0 a 0.5,0.5 0 1,0 1,0 a 0.5,0.5 0 1,0 -1,0  M183.81 155.24 L183.81 155.24 195.81 155.24 M 183.81 161.24 m -1, 0 a 1,1 0 1,0 2,0 a 1,1 0 1,0 -2,0 M 183.81 161.24 m -0.5, 0 a 0.5,0.5 0 1,0 1,0 a 0.5,0.5 0 1,0 -1,0  M183.81 161.24 L183.81 161.24 190.81 155.24 183.81 149.24 M 183.81 149.24 m -1, 0 a 1,1 0 1,0 2,0 a 1,1 0 1,0 -2,0 M 183.81 149.24 m -0.5, 0 a 0.5,0.5 0 1,0 1,0 a 0.5,0.5 0 1,0 -1,0  M195.81 155.24 Q 213.86 155.24, 231.91 161.89 T 268 168.54000000000002 M 280 168.54000000000002 m -1, 0 a 1,1 0 1,0 2,0 a 1,1 0 1,0 -2,0 M 280 168.54000000000002 m -0.5, 0 a 0.5,0.5 0 1,0 1,0 a 0.5,0.5 0 1,0 -1,0  M280 168.54000000000002 L280 168.54000000000002 268 168.54000000000002 M274 174.54000000000002 L274 174.54000000000002 274 162.54000000000002" id="h153728644" class="r"></path><path d="M 183.81 180.24 m -1, 0 a 1,1 0 1,0 2,0 a 1,1 0 1,0 -2,0 M 183.81 180.24 m -0.5, 0 a 0.5,0.5 0 1,0 1,0 a 0.5,0.5 0 1,0 -1,0  M183.81 180.24 L183.81 180.24 195.81 180.24 M 183.81 186.24 m -1, 0 a 1,1 0 1,0 2,0 a 1,1 0 1,0 -2,0 M 183.81 186.24 m -0.5, 0 a 0.5,0.5 0 1,0 1,0 a 0.5,0.5 0 1,0 -1,0  M183.81 186.24 L183.81 186.24 190.81 180.24 183.81 174.24 M 183.81 174.24 m -1, 0 a 1,1 0 1,0 2,0 a 1,1 0 1,0 -2,0 M 183.81 174.24 m -0.5, 0 a 0.5,0.5 0 1,0 1,0 a 0.5,0.5 0 1,0 -1,0  M195.81 180.24 Q 213.86 180.24, 231.91 174.39 T 268 168.54000000000002 M 280 168.54000000000002 m -1, 0 a 1,1 0 1,0 2,0 a 1,1 0 1,0 -2,0 M 280 168.54000000000002 m -0.5, 0 a 0.5,0.5 0 1,0 1,0 a 0.5,0.5 0 1,0 -1,0  M280 168.54000000000002 L280 168.54000000000002 268 168.54000000000002 M274 174.54000000000002 L274 174.54000000000002 274 162.54000000000002" id="h2379794508" class="r"></path><path d="M 183.81 205.24 m -1, 0 a 1,1 0 1,0 2,0 a 1,1 0 1,0 -2,0 M 183.81 205.24 m -0.5, 0 a 0.5,0.5 0 1,0 1,0 a 0.5,0.5 0 1,0 -1,0  M183.81 205.24 L183.81 205.24 195.81 205.24 M 183.81 211.24 m -1, 0 a 1,1 0 1,0 2,0 a 1,1 0 1,0 -2,0 M 183.81 211.24 m -0.5, 0 a 0.5,0.5 0 1,0 1,0 a 0.5,0.5 0 1,0 -1,0  M183.81 211.24 L183.81 211.24 190.81 205.24 183.81 199.24 M 183.81 199.24 m -1, 0 a 1,1 0 1,0 2,0 a 1,1 0 1,0 -2,0 M 183.81 199.24 m -0.5, 0 a 0.5,0.5 0 1,0 1,0 a 0.5,0.5 0 1,0 -1,0  M195.81 205.24 Q 213.86 205.24, 231.91 186.89 T 268 168.54000000000002 M 280 168.54000000000002 m -1, 0 a 1,1 0 1,0 2,0 a 1,1 0 1,0 -2,0 M 280 168.54000000000002 m -0.5, 0 a 0.5,0.5 0 1,0 1,0 a 0.5,0.5 0 1,0 -1,0  M280 168.54000000000002 L280 168.54000000000002 268 168.54000000000002 M274 174.54000000000002 L274 174.54000000000002 274 162.54000000000002" id="h3415818988" class="r"></path><path d="M 183.81 230.24 m -1, 0 a 1,1 0 1,0 2,0 a 1,1 0 1,0 -2,0 M 183.81 230.24 m -0.5, 0 a 0.5,0.5 0 1,0 1,0 a 0.5,0.5 0 1,0 -1,0  M183.81 230.24 L183.81 230.24 195.81 230.24 M 183.81 236.24 m -1, 0 a 1,1 0 1,0 2,0 a 1,1 0 1,0 -2,0 M 183.81 236.24 m -0.5, 0 a 0.5,0.5 0 1,0 1,0 a 0.5,0.5 0 1,0 -1,0  M183.81 236.24 L183.81 236.24 190.81 230.24 183.81 224.24 M 183.81 224.24 m -1, 0 a 1,1 0 1,0 2,0 a 1,1 0 1,0 -2,0 M 183.81 224.24 m -0.5, 0 a 0.5,0.5 0 1,0 1,0 a 0.5,0.5 0 1,0 -1,0  M195.81 230.24 Q 213.86 230.24, 231.91 199.39 T 268 168.54000000000002 M 280 168.54000000000002 m -1, 0 a 1,1 0 1,0 2,0 a 1,1 0 1,0 -2,0 M 280 168.54000000000002 m -0.5, 0 a 0.5,0.5 0 1,0 1,0 a 0.5,0.5 0 1,0 -1,0  M280 168.54000000000002 L280 168.54000000000002 268 168.54000000000002 M274 174.54000000000002 L274 174.54000000000002 274 162.54000000000002" id="h4131787444" class="r"></path><path d="M 281.54 50.08 m -1, 0 a 1,1 0 1,0 2,0 a 1,1 0 1,0 -2,0 M 281.54 50.08 m -0.5, 0 a 0.5,0.5 0 1,0 1,0 a 0.5,0.5 0 1,0 -1,0  M281.54 50.08 L281.54 50.08 269.54 50.08 M 281.54 56.08 m -1, 0 a 1,1 0 1,0 2,0 a 1,1 0 1,0 -2,0 M 281.54 56.08 m -0.5, 0 a 0.5,0.5 0 1,0 1,0 a 0.5,0.5 0 1,0 -1,0  M281.54 56.08 L281.54 56.08 274.54 50.08 281.54 44.08 M 281.54 44.08 m -1, 0 a 1,1 0 1,0 2,0 a 1,1 0 1,0 -2,0 M 281.54 44.08 m -0.5, 0 a 0.5,0.5 0 1,0 1,0 a 0.5,0.5 0 1,0 -1,0  M269.54 50.08 Q 251.11 50.08, 232.68 27.66 T 195.81 5.240000000000002 M 183.81 5.240000000000002 m -1, 0 a 1,1 0 1,0 2,0 a 1,1 0 1,0 -2,0 M 183.81 5.240000000000002 m -0.5, 0 a 0.5,0.5 0 1,0 1,0 a 0.5,0.5 0 1,0 -1,0  M183.81 5.240000000000002 L183.81 5.240000000000002 195.81 5.240000000000002 M189.81 11.240000000000002 L189.81 11.240000000000002 189.81 -0.759999999999998" id="h967239053" class="r"></path><path d="M 281.54 75.08 m -1, 0 a 1,1 0 1,0 2,0 a 1,1 0 1,0 -2,0 M 281.54 75.08 m -0.5, 0 a 0.5,0.5 0 1,0 1,0 a 0.5,0.5 0 1,0 -1,0  M281.54 75.08 L281.54 75.08 269.54 75.08 M 281.54 81.08 m -1, 0 a 1,1 0 1,0 2,0 a 1,1 0 1,0 -2,0 M 281.54 81.08 m -0.5, 0 a 0.5,0.5 0 1,0 1,0 a 0.5,0.5 0 1,0 -1,0  M281.54 81.08 L281.54 81.08 274.54 75.08 281.54 69.08 M 281.54 69.08 m -1, 0 a 1,1 0 1,0 2,0 a 1,1 0 1,0 -2,0 M 281.54 69.08 m -0.5, 0 a 0.5,0.5 0 1,0 1,0 a 0.5,0.5 0 1,0 -1,0  M269.54 75.08 C 235.9184376934124 75.08, 236.8424376934124 168.54000000000002, 268 168.54000000000002 M 280 168.54000000000002 m -1, 0 a 1,1 0 1,0 2,0 a 1,1 0 1,0 -2,0 M 280 168.54000000000002 m -0.5, 0 a 0.5,0.5 0 1,0 1,0 a 0.5,0.5 0 1,0 -1,0  M280 168.54000000000002 L280 168.54000000000002 268 168.54000000000002 M274 174.54000000000002 L274 174.54000000000002 274 162.54000000000002" id="h4033320596" class="r"></path><path d="M 417.41 293.54 m -1, 0 a 1,1 0 1,0 2,0 a 1,1 0 1,0 -2,0 M 417.41 293.54 m -0.5, 0 a 0.5,0.5 0 1,0 1,0 a 0.5,0.5 0 1,0 -1,0  M417.41 293.54 L417.41 293.54 429.41 293.54 M 417.41 299.54 m -1, 0 a 1,1 0 1,0 2,0 a 1,1 0 1,0 -2,0 M 417.41 299.54 m -0.5, 0 a 0.5,0.5 0 1,0 1,0 a 0.5,0.5 0 1,0 -1,0  M417.41 299.54 L417.41 299.54 424.41 293.54 417.41 287.54 M 417.41 287.54 m -1, 0 a 1,1 0 1,0 2,0 a 1,1 0 1,0 -2,0 M 417.41 287.54 m -0.5, 0 a 0.5,0.5 0 1,0 1,0 a 0.5,0.5 0 1,0 -1,0  M429.41 293.54 Q 447.23 293.54, 465.05 179.89 T 500.69000000000005 66.23 M 512.69 66.23 m -1, 0 a 1,1 0 1,0 2,0 a 1,1 0 1,0 -2,0 M 512.69 66.23 m -0.5, 0 a 0.5,0.5 0 1,0 1,0 a 0.5,0.5 0 1,0 -1,0  M512.69 66.23 L512.69 66.23 500.69000000000005 66.23 M506.69000000000005 72.23 L506.69000000000005 72.23 506.69000000000005 60.230000000000004" id="h3872756814" class="r"></path><path d="M 280 343.54 m -1, 0 a 1,1 0 1,0 2,0 a 1,1 0 1,0 -2,0 M 280 343.54 m -0.5, 0 a 0.5,0.5 0 1,0 1,0 a 0.5,0.5 0 1,0 -1,0  M280 343.54 L280 343.54 268 343.54 M 280 349.54 m -1, 0 a 1,1 0 1,0 2,0 a 1,1 0 1,0 -2,0 M 280 349.54 m -0.5, 0 a 0.5,0.5 0 1,0 1,0 a 0.5,0.5 0 1,0 -1,0  M280 349.54 L280 349.54 273 343.54 280 337.54 M 280 337.54 m -1, 0 a 1,1 0 1,0 2,0 a 1,1 0 1,0 -2,0 M 280 337.54 m -0.5, 0 a 0.5,0.5 0 1,0 1,0 a 0.5,0.5 0 1,0 -1,0  M268 343.54 Q 240.12 343.54, 212.23 339.12 T 156.45 334.69 M 144.45 334.69 m -1, 0 a 1,1 0 1,0 2,0 a 1,1 0 1,0 -2,0 M 144.45 334.69 m -0.5, 0 a 0.5,0.5 0 1,0 1,0 a 0.5,0.5 0 1,0 -1,0  M144.45 334.69 L144.45 334.69 156.45 334.69 M150.45 340.69 L150.45 340.69 150.45 328.69" id="h2801957620" class="r"></path><path d="M 417.41 368.54 m -1, 0 a 1,1 0 1,0 2,0 a 1,1 0 1,0 -2,0 M 417.41 368.54 m -0.5, 0 a 0.5,0.5 0 1,0 1,0 a 0.5,0.5 0 1,0 -1,0  M417.41 368.54 L417.41 368.54 429.41 368.54 M 417.41 374.54 m -1, 0 a 1,1 0 1,0 2,0 a 1,1 0 1,0 -2,0 M 417.41 374.54 m -0.5, 0 a 0.5,0.5 0 1,0 1,0 a 0.5,0.5 0 1,0 -1,0  M417.41 374.54 L417.41 374.54 424.41 368.54 417.41 362.54 M 417.41 362.54 m -1, 0 a 1,1 0 1,0 2,0 a 1,1 0 1,0 -2,0 M 417.41 362.54 m -0.5, 0 a 0.5,0.5 0 1,0 1,0 a 0.5,0.5 0 1,0 -1,0  M429.41 368.54 Q 447.81 368.54, 466.21 333.16 T 503 297.77 M 515 297.77 m -1, 0 a 1,1 0 1,0 2,0 a 1,1 0 1,0 -2,0 M 515 297.77 m -0.5, 0 a 0.5,0.5 0 1,0 1,0 a 0.5,0.5 0 1,0 -1,0  M515 297.77 L515 297.77 503 297.77 M509 303.77 L509 303.77 509 291.77" id="h2041826364" class="r"></path></g><g class="hrs"></g><g class="ts"><svg width="151.39" height="300" x="32.42" y="-51.76" id="h2948373614" class="t"><rect height="40" width="151.39" class="th"></rect><text x="13" y="25" class="tht">users</text><rect height="260" width="151.39" class="t-bg"></rect><text x="13" y="61" class="tf pk">id<tspan x="138.39" class="ty">serial</tspan></text><path d="M7,14A2,2 0 0,1 5,12A2,2 0 0,1 7,10A2,2 0 0,1 9,12A2,2 0 0,1 7,14M12.65,10C11.83,7.67 9.61,6 7, 6A6, 6 0 0, 0 1, 12A6, 6 0 0, 0 7, 18C9.61, 18 11.83, 16.33 12.65, 14H17V18H21V14H23V10H12.65Z" class="i pk" transform="translate(89.71421874999999, 48) scale(0.65)"></path><text x="13" y="86" class="tf">username<tspan x="138.39" class="ty">text</tspan></text><text x="13" y="111" class="tf">password<tspan x="138.39" class="ty">text</tspan></text><text x="13" y="136" class="tf">email<tspan x="138.39" class="ty">text</tspan></text><text x="13" y="161" class="tf">image_url<tspan x="138.39" class="ty">text</tspan></text><text x="13" y="186" class="tf">bio<tspan x="138.39" class="ty">text</tspan></text><text x="13" y="211" class="tf fk">want_to_read<tspan x="138.39" class="ty">int</tspan></text><text x="13" y="236" class="tf fk">currently_reading<tspan x="138.39" class="ty">int</tspan></text><text x="13" y="261" class="tf fk">have_read<tspan x="138.39" class="ty">int</tspan></text><text x="13" y="286" class="tf fk">favorite<tspan x="138.39" class="ty">int</tspan></text></svg><svg width="104.02" height="150" x="281.54" y="-56.92" id="h1479488446" class="t"><rect height="40" width="104.02" class="th"></rect><text x="13" y="25" class="tht">reviews</text><rect height="110" width="104.02" class="t-bg"></rect><text x="13" y="61" class="tf pk">id<tspan x="91.02" class="ty">serial</tspan></text><path d="M7,14A2,2 0 0,1 5,12A2,2 0 0,1 7,10A2,2 0 0,1 9,12A2,2 0 0,1 7,14M12.65,10C11.83,7.67 9.61,6 7, 6A6, 6 0 0, 0 1, 12A6, 6 0 0, 0 7, 18C9.61, 18 11.83, 16.33 12.65, 14H17V18H21V14H23V10H12.65Z" class="i pk" transform="translate(42.344218749999996, 48) scale(0.65)"></path><text x="13" y="86" class="tf">review<tspan x="91.02" class="ty">text</tspan></text><text x="13" y="111" class="tf fk">user_id<tspan x="91.02" class="ty">int</tspan></text><text x="13" y="136" class="tf fk">book_id<tspan x="91.02" class="ty">int</tspan></text></svg><svg width="137.41" height="275" x="280" y="111.54" id="h3609438349" class="t"><rect height="40" width="137.41" class="th"></rect><text x="13" y="25" class="tht">books</text><rect height="235" width="137.41" class="t-bg"></rect><text x="13" y="61" class="tf pk">id<tspan x="124.41" class="ty">serial</tspan></text><path d="M7,14A2,2 0 0,1 5,12A2,2 0 0,1 7,10A2,2 0 0,1 9,12A2,2 0 0,1 7,14M12.65,10C11.83,7.67 9.61,6 7, 6A6, 6 0 0, 0 1, 12A6, 6 0 0, 0 7, 18C9.61, 18 11.83, 16.33 12.65, 14H17V18H21V14H23V10H12.65Z" class="i pk" transform="translate(75.73421875, 48) scale(0.65)"></path><text x="13" y="86" class="tf">ISBN<tspan x="124.41" class="ty">serial</tspan></text><text x="13" y="111" class="tf">title<tspan x="124.41" class="ty">text</tspan></text><text x="13" y="136" class="tf">subtitle<tspan x="124.41" class="ty">text</tspan></text><text x="13" y="161" class="tf">thumbnail<tspan x="124.41" class="ty">text</tspan></text><text x="13" y="186" class="tf fk">author_id<tspan x="124.41" class="ty">int</tspan></text><text x="13" y="211" class="tf">publish_date<tspan x="124.41" class="ty">date</tspan></text><text x="13" y="236" class="tf fk">category_id<tspan x="124.41" class="ty">int</tspan></text><text x="13" y="261" class="tf fk">publisher_id<tspan x="124.41" class="ty">int</tspan></text></svg><svg width="104.02" height="100" x="512.69" y="9.23" id="h4247536719" class="t"><rect height="40" width="104.02" class="th"></rect><text x="13" y="25" class="tht">authors</text><rect height="60" width="104.02" class="t-bg"></rect><text x="13" y="61" class="tf pk">id<tspan x="91.02" class="ty">serial</tspan></text><path d="M7,14A2,2 0 0,1 5,12A2,2 0 0,1 7,10A2,2 0 0,1 9,12A2,2 0 0,1 7,14M12.65,10C11.83,7.67 9.61,6 7, 6A6, 6 0 0, 0 1, 12A6, 6 0 0, 0 7, 18C9.61, 18 11.83, 16.33 12.65, 14H17V18H21V14H23V10H12.65Z" class="i pk" transform="translate(42.344218749999996, 48) scale(0.65)"></path><text x="13" y="86" class="tf">name<tspan x="91.02" class="ty">text</tspan></text></svg><svg width="111.37" height="100" x="33.08" y="277.69" id="h2129794260" class="t"><rect height="40" width="111.37" class="th"></rect><text x="13" y="25" class="tht">categories</text><rect height="60" width="111.37" class="t-bg"></rect><text x="13" y="61" class="tf pk">id<tspan x="98.37" class="ty">serial</tspan></text><path d="M7,14A2,2 0 0,1 5,12A2,2 0 0,1 7,10A2,2 0 0,1 9,12A2,2 0 0,1 7,14M12.65,10C11.83,7.67 9.61,6 7, 6A6, 6 0 0, 0 1, 12A6, 6 0 0, 0 7, 18C9.61, 18 11.83, 16.33 12.65, 14H17V18H21V14H23V10H12.65Z" class="i pk" transform="translate(49.694218750000005, 48) scale(0.65)"></path><text x="13" y="86" class="tf">category<tspan x="98.37" class="ty">text</tspan></text></svg><svg width="104.02" height="100" x="515" y="240.77" id="h743173551" class="t"><rect height="40" width="104.02" class="th"></rect><text x="13" y="25" class="tht">publishers</text><rect height="60" width="104.02" class="t-bg"></rect><text x="13" y="61" class="tf pk">id<tspan x="91.02" class="ty">serial</tspan></text><path d="M7,14A2,2 0 0,1 5,12A2,2 0 0,1 7,10A2,2 0 0,1 9,12A2,2 0 0,1 7,14M12.65,10C11.83,7.67 9.61,6 7, 6A6, 6 0 0, 0 1, 12A6, 6 0 0, 0 7, 18C9.61, 18 11.83, 16.33 12.65, 14H17V18H21V14H23V10H12.65Z" class="i pk" transform="translate(42.344218749999996, 48) scale(0.65)"></path><text x="13" y="86" class="tf">name<tspan x="91.02" class="ty">text</tspan></text></svg></g></g><text class="qdbd-link" x="10" y="20">www.quickdatabasediagrams.com</text></svg>